<mxfile host="app.diagrams.net" modified="2020-06-08T12:11:56.058Z" agent="5.0 (Macintosh; Intel Mac OS X 10_15_2) AppleWebKit/537.36 (KHTML, like Gecko) Chrome/83.0.4103.61 Safari/537.36" etag="0SOOB6WiKHYxytQBj2Yv" version="13.1.14" type="github">
  <diagram id="fE_A61PLcm3YP5j0iru2" name="Page-1">
    <mxGraphModel dx="2066" dy="1131" grid="1" gridSize="10" guides="1" tooltips="1" connect="1" arrows="1" fold="1" page="1" pageScale="1" pageWidth="827" pageHeight="1169" math="0" shadow="0">
      <root>
        <mxCell id="0" />
        <mxCell id="1" parent="0" />
        <mxCell id="1dputfeMbIGrU2J2WRJ0-3" style="edgeStyle=orthogonalEdgeStyle;rounded=0;orthogonalLoop=1;jettySize=auto;html=1;entryX=0.5;entryY=0;entryDx=0;entryDy=0;" edge="1" parent="1" source="1dputfeMbIGrU2J2WRJ0-1" target="1dputfeMbIGrU2J2WRJ0-2">
          <mxGeometry relative="1" as="geometry" />
        </mxCell>
        <mxCell id="1dputfeMbIGrU2J2WRJ0-1" value="ad-" style="rounded=0;whiteSpace=wrap;html=1;" vertex="1" parent="1">
          <mxGeometry x="200" y="230" width="120" height="60" as="geometry" />
        </mxCell>
        <mxCell id="1dputfeMbIGrU2J2WRJ0-2" value="recall" style="rounded=0;whiteSpace=wrap;html=1;" vertex="1" parent="1">
          <mxGeometry x="200" y="380" width="120" height="60" as="geometry" />
        </mxCell>
      </root>
    </mxGraphModel>
  </diagram>
</mxfile>
